<mxfile host="app.diagrams.net" modified="2023-11-05T17:48:02.289Z" agent="Mozilla/5.0 (Windows NT 10.0; Win64; x64) AppleWebKit/537.36 (KHTML, like Gecko) Chrome/118.0.0.0 Safari/537.36" etag="TE7J9DT-9RRZXPwbIDDT" version="21.5.0" type="device">
  <diagram id="C5RBs43oDa-KdzZeNtuy" name="Page-1">
    <mxGraphModel dx="3702" dy="1260" grid="1" gridSize="10" guides="1" tooltips="1" connect="1" arrows="1" fold="1" page="1" pageScale="1" pageWidth="827" pageHeight="1169" math="0" shadow="0">
      <root>
        <mxCell id="WIyWlLk6GJQsqaUBKTNV-0" />
        <mxCell id="WIyWlLk6GJQsqaUBKTNV-1" parent="WIyWlLk6GJQsqaUBKTNV-0" />
        <mxCell id="E8Huc1iyoqKieG4LwPIf-0" value="User" style="swimlane;whiteSpace=wrap;html=1;" vertex="1" parent="WIyWlLk6GJQsqaUBKTNV-1">
          <mxGeometry x="300" y="50" width="200" height="200" as="geometry" />
        </mxCell>
        <mxCell id="E8Huc1iyoqKieG4LwPIf-2" value="-surname:String&amp;nbsp;" style="text;html=1;align=center;verticalAlign=middle;resizable=0;points=[];autosize=1;strokeColor=none;fillColor=none;" vertex="1" parent="E8Huc1iyoqKieG4LwPIf-0">
          <mxGeometry x="-5" y="58" width="110" height="30" as="geometry" />
        </mxCell>
        <mxCell id="E8Huc1iyoqKieG4LwPIf-4" value="-name: String&amp;nbsp;" style="text;html=1;align=center;verticalAlign=middle;resizable=0;points=[];autosize=1;strokeColor=none;fillColor=none;" vertex="1" parent="E8Huc1iyoqKieG4LwPIf-0">
          <mxGeometry x="-5" y="89" width="100" height="30" as="geometry" />
        </mxCell>
        <mxCell id="E8Huc1iyoqKieG4LwPIf-5" value="-email :String&amp;nbsp;" style="text;html=1;align=center;verticalAlign=middle;resizable=0;points=[];autosize=1;strokeColor=none;fillColor=none;" vertex="1" parent="E8Huc1iyoqKieG4LwPIf-0">
          <mxGeometry x="-5" y="28" width="100" height="30" as="geometry" />
        </mxCell>
        <mxCell id="E8Huc1iyoqKieG4LwPIf-7" value="Student" style="swimlane;whiteSpace=wrap;html=1;" vertex="1" parent="WIyWlLk6GJQsqaUBKTNV-1">
          <mxGeometry x="-120" y="318" width="200" height="100" as="geometry" />
        </mxCell>
        <mxCell id="E8Huc1iyoqKieG4LwPIf-10" value="-schoolClass: String" style="text;html=1;align=center;verticalAlign=middle;resizable=0;points=[];autosize=1;strokeColor=none;fillColor=none;" vertex="1" parent="E8Huc1iyoqKieG4LwPIf-7">
          <mxGeometry x="-5" y="28" width="130" height="30" as="geometry" />
        </mxCell>
        <mxCell id="E8Huc1iyoqKieG4LwPIf-8" value="Extends" style="endArrow=block;endSize=16;endFill=0;html=1;rounded=0;exitX=0.5;exitY=0;exitDx=0;exitDy=0;entryX=0.25;entryY=1;entryDx=0;entryDy=0;" edge="1" parent="WIyWlLk6GJQsqaUBKTNV-1" source="E8Huc1iyoqKieG4LwPIf-7" target="E8Huc1iyoqKieG4LwPIf-0">
          <mxGeometry width="160" relative="1" as="geometry">
            <mxPoint x="330" y="260" as="sourcePoint" />
            <mxPoint x="450" y="300" as="targetPoint" />
          </mxGeometry>
        </mxCell>
        <mxCell id="E8Huc1iyoqKieG4LwPIf-13" value="Educator" style="swimlane;whiteSpace=wrap;html=1;" vertex="1" parent="WIyWlLk6GJQsqaUBKTNV-1">
          <mxGeometry x="720" y="313" width="200" height="110" as="geometry" />
        </mxCell>
        <mxCell id="E8Huc1iyoqKieG4LwPIf-16" value="Extends" style="endArrow=block;endSize=16;endFill=0;html=1;rounded=0;exitX=0.5;exitY=0;exitDx=0;exitDy=0;entryX=0.75;entryY=1;entryDx=0;entryDy=0;" edge="1" parent="WIyWlLk6GJQsqaUBKTNV-1" source="E8Huc1iyoqKieG4LwPIf-13" target="E8Huc1iyoqKieG4LwPIf-0">
          <mxGeometry width="160" relative="1" as="geometry">
            <mxPoint x="330" y="260" as="sourcePoint" />
            <mxPoint x="420" y="250" as="targetPoint" />
          </mxGeometry>
        </mxCell>
        <mxCell id="E8Huc1iyoqKieG4LwPIf-17" value="Tournament" style="swimlane;whiteSpace=wrap;html=1;" vertex="1" parent="WIyWlLk6GJQsqaUBKTNV-1">
          <mxGeometry x="300" y="485" width="200" height="200" as="geometry" />
        </mxCell>
        <mxCell id="E8Huc1iyoqKieG4LwPIf-18" value="-id : int" style="text;html=1;align=center;verticalAlign=middle;resizable=0;points=[];autosize=1;strokeColor=none;fillColor=none;" vertex="1" parent="E8Huc1iyoqKieG4LwPIf-17">
          <mxGeometry y="28" width="60" height="30" as="geometry" />
        </mxCell>
        <mxCell id="E8Huc1iyoqKieG4LwPIf-19" value="-capacity: int" style="text;html=1;align=center;verticalAlign=middle;resizable=0;points=[];autosize=1;strokeColor=none;fillColor=none;" vertex="1" parent="E8Huc1iyoqKieG4LwPIf-17">
          <mxGeometry x="-5" y="58" width="90" height="30" as="geometry" />
        </mxCell>
        <mxCell id="E8Huc1iyoqKieG4LwPIf-20" value="-deadline: Date" style="text;html=1;align=center;verticalAlign=middle;resizable=0;points=[];autosize=1;strokeColor=none;fillColor=none;" vertex="1" parent="E8Huc1iyoqKieG4LwPIf-17">
          <mxGeometry x="-5" y="88" width="100" height="30" as="geometry" />
        </mxCell>
        <mxCell id="E8Huc1iyoqKieG4LwPIf-78" value="-name:String" style="text;html=1;align=center;verticalAlign=middle;resizable=0;points=[];autosize=1;strokeColor=none;fillColor=none;" vertex="1" parent="E8Huc1iyoqKieG4LwPIf-17">
          <mxGeometry x="-5" y="118" width="90" height="30" as="geometry" />
        </mxCell>
        <mxCell id="E8Huc1iyoqKieG4LwPIf-22" value="" style="endArrow=none;html=1;rounded=0;entryX=0.75;entryY=1;entryDx=0;entryDy=0;exitX=0;exitY=0.25;exitDx=0;exitDy=0;" edge="1" parent="WIyWlLk6GJQsqaUBKTNV-1" source="E8Huc1iyoqKieG4LwPIf-17" target="E8Huc1iyoqKieG4LwPIf-7">
          <mxGeometry width="50" height="50" relative="1" as="geometry">
            <mxPoint x="260" y="550" as="sourcePoint" />
            <mxPoint x="440" y="530" as="targetPoint" />
          </mxGeometry>
        </mxCell>
        <mxCell id="E8Huc1iyoqKieG4LwPIf-23" value="0... *" style="text;html=1;align=center;verticalAlign=middle;resizable=0;points=[];autosize=1;strokeColor=none;fillColor=none;" vertex="1" parent="WIyWlLk6GJQsqaUBKTNV-1">
          <mxGeometry x="60" y="418" width="50" height="30" as="geometry" />
        </mxCell>
        <mxCell id="E8Huc1iyoqKieG4LwPIf-24" value="1...*" style="text;html=1;align=center;verticalAlign=middle;resizable=0;points=[];autosize=1;strokeColor=none;fillColor=none;" vertex="1" parent="WIyWlLk6GJQsqaUBKTNV-1">
          <mxGeometry x="270" y="530" width="40" height="30" as="geometry" />
        </mxCell>
        <mxCell id="E8Huc1iyoqKieG4LwPIf-25" value="+partecipate" style="text;html=1;align=center;verticalAlign=middle;resizable=0;points=[];autosize=1;strokeColor=none;fillColor=none;" vertex="1" parent="WIyWlLk6GJQsqaUBKTNV-1">
          <mxGeometry x="125" y="485" width="90" height="30" as="geometry" />
        </mxCell>
        <mxCell id="E8Huc1iyoqKieG4LwPIf-26" value="" style="endArrow=none;html=1;rounded=0;entryX=0.5;entryY=1;entryDx=0;entryDy=0;exitX=1;exitY=0.25;exitDx=0;exitDy=0;" edge="1" parent="WIyWlLk6GJQsqaUBKTNV-1" source="E8Huc1iyoqKieG4LwPIf-17" target="E8Huc1iyoqKieG4LwPIf-13">
          <mxGeometry width="50" height="50" relative="1" as="geometry">
            <mxPoint x="580" y="520" as="sourcePoint" />
            <mxPoint x="630" y="470" as="targetPoint" />
          </mxGeometry>
        </mxCell>
        <mxCell id="E8Huc1iyoqKieG4LwPIf-27" value="1" style="text;html=1;align=center;verticalAlign=middle;resizable=0;points=[];autosize=1;strokeColor=none;fillColor=none;" vertex="1" parent="WIyWlLk6GJQsqaUBKTNV-1">
          <mxGeometry x="740" y="425" width="30" height="30" as="geometry" />
        </mxCell>
        <mxCell id="E8Huc1iyoqKieG4LwPIf-28" value="1... *" style="text;html=1;align=center;verticalAlign=middle;resizable=0;points=[];autosize=1;strokeColor=none;fillColor=none;" vertex="1" parent="WIyWlLk6GJQsqaUBKTNV-1">
          <mxGeometry x="500" y="500" width="50" height="30" as="geometry" />
        </mxCell>
        <mxCell id="E8Huc1iyoqKieG4LwPIf-29" value="+create_tournament" style="text;html=1;align=center;verticalAlign=middle;resizable=0;points=[];autosize=1;strokeColor=none;fillColor=none;" vertex="1" parent="WIyWlLk6GJQsqaUBKTNV-1">
          <mxGeometry x="540" y="460" width="130" height="30" as="geometry" />
        </mxCell>
        <mxCell id="E8Huc1iyoqKieG4LwPIf-32" value="Challenge" style="swimlane;whiteSpace=wrap;html=1;" vertex="1" parent="WIyWlLk6GJQsqaUBKTNV-1">
          <mxGeometry x="300" y="800" width="200" height="150" as="geometry" />
        </mxCell>
        <mxCell id="E8Huc1iyoqKieG4LwPIf-37" value="-registrationDeadline: Date" style="text;html=1;align=center;verticalAlign=middle;resizable=0;points=[];autosize=1;strokeColor=none;fillColor=none;" vertex="1" parent="E8Huc1iyoqKieG4LwPIf-32">
          <mxGeometry x="-5" y="28" width="170" height="30" as="geometry" />
        </mxCell>
        <mxCell id="E8Huc1iyoqKieG4LwPIf-38" value="-numberPerGroup: int" style="text;html=1;align=center;verticalAlign=middle;resizable=0;points=[];autosize=1;strokeColor=none;fillColor=none;" vertex="1" parent="E8Huc1iyoqKieG4LwPIf-32">
          <mxGeometry x="10" y="58" width="140" height="30" as="geometry" />
        </mxCell>
        <mxCell id="E8Huc1iyoqKieG4LwPIf-39" value="-finalSubmissionDeadline : Date" style="text;html=1;align=center;verticalAlign=middle;resizable=0;points=[];autosize=1;strokeColor=none;fillColor=none;" vertex="1" parent="E8Huc1iyoqKieG4LwPIf-32">
          <mxGeometry x="-5" y="88" width="190" height="30" as="geometry" />
        </mxCell>
        <mxCell id="E8Huc1iyoqKieG4LwPIf-40" value="-codeKata: File" style="text;html=1;align=center;verticalAlign=middle;resizable=0;points=[];autosize=1;strokeColor=none;fillColor=none;" vertex="1" parent="E8Huc1iyoqKieG4LwPIf-32">
          <mxGeometry x="-5" y="120" width="100" height="30" as="geometry" />
        </mxCell>
        <mxCell id="E8Huc1iyoqKieG4LwPIf-33" value="" style="endArrow=none;html=1;rounded=0;entryX=0.5;entryY=1;entryDx=0;entryDy=0;exitX=0.5;exitY=0;exitDx=0;exitDy=0;" edge="1" parent="WIyWlLk6GJQsqaUBKTNV-1" source="E8Huc1iyoqKieG4LwPIf-32" target="E8Huc1iyoqKieG4LwPIf-17">
          <mxGeometry width="50" height="50" relative="1" as="geometry">
            <mxPoint x="340" y="760" as="sourcePoint" />
            <mxPoint x="390" y="710" as="targetPoint" />
          </mxGeometry>
        </mxCell>
        <mxCell id="E8Huc1iyoqKieG4LwPIf-34" value="+belongs" style="text;html=1;align=center;verticalAlign=middle;resizable=0;points=[];autosize=1;strokeColor=none;fillColor=none;" vertex="1" parent="WIyWlLk6GJQsqaUBKTNV-1">
          <mxGeometry x="390" y="728" width="70" height="30" as="geometry" />
        </mxCell>
        <mxCell id="E8Huc1iyoqKieG4LwPIf-35" value="0,...*" style="text;html=1;align=center;verticalAlign=middle;resizable=0;points=[];autosize=1;strokeColor=none;fillColor=none;" vertex="1" parent="WIyWlLk6GJQsqaUBKTNV-1">
          <mxGeometry x="390" y="678" width="50" height="30" as="geometry" />
        </mxCell>
        <mxCell id="E8Huc1iyoqKieG4LwPIf-36" value="1" style="text;html=1;align=center;verticalAlign=middle;resizable=0;points=[];autosize=1;strokeColor=none;fillColor=none;" vertex="1" parent="WIyWlLk6GJQsqaUBKTNV-1">
          <mxGeometry x="399" y="770" width="30" height="30" as="geometry" />
        </mxCell>
        <mxCell id="E8Huc1iyoqKieG4LwPIf-41" value="Rules" style="swimlane;whiteSpace=wrap;html=1;" vertex="1" parent="WIyWlLk6GJQsqaUBKTNV-1">
          <mxGeometry x="300" y="1060" width="200" height="90" as="geometry" />
        </mxCell>
        <mxCell id="E8Huc1iyoqKieG4LwPIf-43" value="-condition : String" style="text;html=1;align=center;verticalAlign=middle;resizable=0;points=[];autosize=1;strokeColor=none;fillColor=none;" vertex="1" parent="E8Huc1iyoqKieG4LwPIf-41">
          <mxGeometry x="-5" y="30" width="120" height="30" as="geometry" />
        </mxCell>
        <mxCell id="E8Huc1iyoqKieG4LwPIf-42" value="" style="endArrow=none;html=1;rounded=0;entryX=0.5;entryY=1;entryDx=0;entryDy=0;exitX=0.5;exitY=0;exitDx=0;exitDy=0;" edge="1" parent="WIyWlLk6GJQsqaUBKTNV-1" source="E8Huc1iyoqKieG4LwPIf-41" target="E8Huc1iyoqKieG4LwPIf-32">
          <mxGeometry width="50" height="50" relative="1" as="geometry">
            <mxPoint x="330" y="1030" as="sourcePoint" />
            <mxPoint x="380" y="980" as="targetPoint" />
          </mxGeometry>
        </mxCell>
        <mxCell id="E8Huc1iyoqKieG4LwPIf-45" value="1,..*" style="text;html=1;align=center;verticalAlign=middle;resizable=0;points=[];autosize=1;strokeColor=none;fillColor=none;" vertex="1" parent="WIyWlLk6GJQsqaUBKTNV-1">
          <mxGeometry x="400" y="948" width="40" height="30" as="geometry" />
        </mxCell>
        <mxCell id="E8Huc1iyoqKieG4LwPIf-46" value="0,...*" style="text;html=1;align=center;verticalAlign=middle;resizable=0;points=[];autosize=1;strokeColor=none;fillColor=none;" vertex="1" parent="WIyWlLk6GJQsqaUBKTNV-1">
          <mxGeometry x="395" y="1030" width="50" height="30" as="geometry" />
        </mxCell>
        <mxCell id="E8Huc1iyoqKieG4LwPIf-47" value="+has" style="text;html=1;align=center;verticalAlign=middle;resizable=0;points=[];autosize=1;strokeColor=none;fillColor=none;" vertex="1" parent="WIyWlLk6GJQsqaUBKTNV-1">
          <mxGeometry x="395" y="990" width="50" height="30" as="geometry" />
        </mxCell>
        <mxCell id="E8Huc1iyoqKieG4LwPIf-49" value="Team" style="swimlane;whiteSpace=wrap;html=1;" vertex="1" parent="WIyWlLk6GJQsqaUBKTNV-1">
          <mxGeometry x="-630" y="396" width="200" height="92" as="geometry" />
        </mxCell>
        <mxCell id="E8Huc1iyoqKieG4LwPIf-50" value="" style="endArrow=none;html=1;rounded=0;entryX=0;entryY=1;entryDx=0;entryDy=0;exitX=1;exitY=0.25;exitDx=0;exitDy=0;" edge="1" parent="WIyWlLk6GJQsqaUBKTNV-1" source="E8Huc1iyoqKieG4LwPIf-49" target="E8Huc1iyoqKieG4LwPIf-7">
          <mxGeometry width="50" height="50" relative="1" as="geometry">
            <mxPoint x="60" y="440" as="sourcePoint" />
            <mxPoint x="110" y="390" as="targetPoint" />
          </mxGeometry>
        </mxCell>
        <mxCell id="E8Huc1iyoqKieG4LwPIf-51" value="0,...*" style="text;html=1;align=center;verticalAlign=middle;resizable=0;points=[];autosize=1;strokeColor=none;fillColor=none;" vertex="1" parent="WIyWlLk6GJQsqaUBKTNV-1">
          <mxGeometry x="-30" y="288" width="50" height="30" as="geometry" />
        </mxCell>
        <mxCell id="E8Huc1iyoqKieG4LwPIf-53" value="+join" style="text;html=1;align=center;verticalAlign=middle;resizable=0;points=[];autosize=1;strokeColor=none;fillColor=none;" vertex="1" parent="WIyWlLk6GJQsqaUBKTNV-1">
          <mxGeometry x="-230" y="655" width="50" height="30" as="geometry" />
        </mxCell>
        <mxCell id="E8Huc1iyoqKieG4LwPIf-55" value="1" style="text;html=1;align=center;verticalAlign=middle;resizable=0;points=[];autosize=1;strokeColor=none;fillColor=none;" vertex="1" parent="WIyWlLk6GJQsqaUBKTNV-1">
          <mxGeometry x="-470" y="488" width="30" height="30" as="geometry" />
        </mxCell>
        <mxCell id="E8Huc1iyoqKieG4LwPIf-56" value="1,...*" style="text;html=1;align=center;verticalAlign=middle;resizable=0;points=[];autosize=1;strokeColor=none;fillColor=none;" vertex="1" parent="WIyWlLk6GJQsqaUBKTNV-1">
          <mxGeometry x="260" y="880" width="50" height="30" as="geometry" />
        </mxCell>
        <mxCell id="E8Huc1iyoqKieG4LwPIf-57" value="+partecipate" style="text;html=1;align=center;verticalAlign=middle;resizable=0;points=[];autosize=1;strokeColor=none;fillColor=none;" vertex="1" parent="WIyWlLk6GJQsqaUBKTNV-1">
          <mxGeometry x="-260" y="376" width="90" height="30" as="geometry" />
        </mxCell>
        <mxCell id="E8Huc1iyoqKieG4LwPIf-58" value="" style="endArrow=none;html=1;rounded=0;exitX=1;exitY=0.25;exitDx=0;exitDy=0;entryX=1;entryY=1;entryDx=0;entryDy=0;" edge="1" parent="WIyWlLk6GJQsqaUBKTNV-1" source="E8Huc1iyoqKieG4LwPIf-32" target="E8Huc1iyoqKieG4LwPIf-13">
          <mxGeometry width="50" height="50" relative="1" as="geometry">
            <mxPoint x="660" y="800" as="sourcePoint" />
            <mxPoint x="710" y="750" as="targetPoint" />
          </mxGeometry>
        </mxCell>
        <mxCell id="E8Huc1iyoqKieG4LwPIf-59" value="1" style="text;html=1;align=center;verticalAlign=middle;resizable=0;points=[];autosize=1;strokeColor=none;fillColor=none;" vertex="1" parent="WIyWlLk6GJQsqaUBKTNV-1">
          <mxGeometry x="495" y="828" width="30" height="30" as="geometry" />
        </mxCell>
        <mxCell id="E8Huc1iyoqKieG4LwPIf-60" value="0,...*" style="text;html=1;align=center;verticalAlign=middle;resizable=0;points=[];autosize=1;strokeColor=none;fillColor=none;" vertex="1" parent="WIyWlLk6GJQsqaUBKTNV-1">
          <mxGeometry x="870" y="425" width="50" height="30" as="geometry" />
        </mxCell>
        <mxCell id="E8Huc1iyoqKieG4LwPIf-61" value="+add_challenge" style="text;html=1;align=center;verticalAlign=middle;resizable=0;points=[];autosize=1;strokeColor=none;fillColor=none;" vertex="1" parent="WIyWlLk6GJQsqaUBKTNV-1">
          <mxGeometry x="600" y="610" width="110" height="30" as="geometry" />
        </mxCell>
        <mxCell id="E8Huc1iyoqKieG4LwPIf-62" value="Badge" style="swimlane;whiteSpace=wrap;html=1;" vertex="1" parent="WIyWlLk6GJQsqaUBKTNV-1">
          <mxGeometry x="330" y="324.25" width="140" height="87.5" as="geometry" />
        </mxCell>
        <mxCell id="E8Huc1iyoqKieG4LwPIf-63" value="-title : string" style="text;html=1;align=center;verticalAlign=middle;resizable=0;points=[];autosize=1;strokeColor=none;fillColor=none;" vertex="1" parent="E8Huc1iyoqKieG4LwPIf-62">
          <mxGeometry x="-6" y="20" width="90" height="30" as="geometry" />
        </mxCell>
        <mxCell id="E8Huc1iyoqKieG4LwPIf-64" value="-id: int" style="text;html=1;align=center;verticalAlign=middle;resizable=0;points=[];autosize=1;strokeColor=none;fillColor=none;" vertex="1" parent="E8Huc1iyoqKieG4LwPIf-62">
          <mxGeometry x="-6" y="50" width="60" height="30" as="geometry" />
        </mxCell>
        <mxCell id="E8Huc1iyoqKieG4LwPIf-66" value="" style="endArrow=none;html=1;rounded=0;entryX=0;entryY=0.5;entryDx=0;entryDy=0;exitX=1;exitY=0.5;exitDx=0;exitDy=0;" edge="1" parent="WIyWlLk6GJQsqaUBKTNV-1" source="E8Huc1iyoqKieG4LwPIf-7" target="E8Huc1iyoqKieG4LwPIf-62">
          <mxGeometry width="50" height="50" relative="1" as="geometry">
            <mxPoint x="160" y="390" as="sourcePoint" />
            <mxPoint x="270" y="360" as="targetPoint" />
          </mxGeometry>
        </mxCell>
        <mxCell id="E8Huc1iyoqKieG4LwPIf-67" value="" style="endArrow=none;html=1;rounded=0;entryX=0;entryY=0.5;entryDx=0;entryDy=0;exitX=1;exitY=0.5;exitDx=0;exitDy=0;" edge="1" parent="WIyWlLk6GJQsqaUBKTNV-1" source="E8Huc1iyoqKieG4LwPIf-62" target="E8Huc1iyoqKieG4LwPIf-13">
          <mxGeometry width="50" height="50" relative="1" as="geometry">
            <mxPoint x="540" y="410" as="sourcePoint" />
            <mxPoint x="590" y="360" as="targetPoint" />
          </mxGeometry>
        </mxCell>
        <mxCell id="E8Huc1iyoqKieG4LwPIf-68" value="" style="endArrow=none;html=1;rounded=0;entryX=0.5;entryY=1;entryDx=0;entryDy=0;exitX=0.5;exitY=0;exitDx=0;exitDy=0;" edge="1" parent="WIyWlLk6GJQsqaUBKTNV-1" source="E8Huc1iyoqKieG4LwPIf-17" target="E8Huc1iyoqKieG4LwPIf-62">
          <mxGeometry width="50" height="50" relative="1" as="geometry">
            <mxPoint x="220" y="470" as="sourcePoint" />
            <mxPoint x="270" y="420" as="targetPoint" />
          </mxGeometry>
        </mxCell>
        <mxCell id="E8Huc1iyoqKieG4LwPIf-69" value="0,...*" style="text;html=1;align=center;verticalAlign=middle;resizable=0;points=[];autosize=1;strokeColor=none;fillColor=none;" vertex="1" parent="WIyWlLk6GJQsqaUBKTNV-1">
          <mxGeometry x="75" y="338" width="50" height="30" as="geometry" />
        </mxCell>
        <mxCell id="E8Huc1iyoqKieG4LwPIf-70" value="0,...*" style="text;html=1;align=center;verticalAlign=middle;resizable=0;points=[];autosize=1;strokeColor=none;fillColor=none;" vertex="1" parent="WIyWlLk6GJQsqaUBKTNV-1">
          <mxGeometry x="290" y="337" width="50" height="30" as="geometry" />
        </mxCell>
        <mxCell id="E8Huc1iyoqKieG4LwPIf-71" value="+have" style="text;html=1;align=center;verticalAlign=middle;resizable=0;points=[];autosize=1;strokeColor=none;fillColor=none;" vertex="1" parent="WIyWlLk6GJQsqaUBKTNV-1">
          <mxGeometry x="170" y="337" width="60" height="30" as="geometry" />
        </mxCell>
        <mxCell id="E8Huc1iyoqKieG4LwPIf-72" value="1" style="text;html=1;align=center;verticalAlign=middle;resizable=0;points=[];autosize=1;strokeColor=none;fillColor=none;" vertex="1" parent="WIyWlLk6GJQsqaUBKTNV-1">
          <mxGeometry x="475" y="338" width="30" height="30" as="geometry" />
        </mxCell>
        <mxCell id="E8Huc1iyoqKieG4LwPIf-73" value="0,...*" style="text;html=1;align=center;verticalAlign=middle;resizable=0;points=[];autosize=1;strokeColor=none;fillColor=none;" vertex="1" parent="WIyWlLk6GJQsqaUBKTNV-1">
          <mxGeometry x="675" y="338" width="50" height="30" as="geometry" />
        </mxCell>
        <mxCell id="E8Huc1iyoqKieG4LwPIf-74" value="+create_badge" style="text;html=1;align=center;verticalAlign=middle;resizable=0;points=[];autosize=1;strokeColor=none;fillColor=none;" vertex="1" parent="WIyWlLk6GJQsqaUBKTNV-1">
          <mxGeometry x="520" y="338" width="100" height="30" as="geometry" />
        </mxCell>
        <mxCell id="E8Huc1iyoqKieG4LwPIf-75" value="1" style="text;html=1;align=center;verticalAlign=middle;resizable=0;points=[];autosize=1;strokeColor=none;fillColor=none;" vertex="1" parent="WIyWlLk6GJQsqaUBKTNV-1">
          <mxGeometry x="399" y="410" width="30" height="30" as="geometry" />
        </mxCell>
        <mxCell id="E8Huc1iyoqKieG4LwPIf-76" value="0,...*" style="text;html=1;align=center;verticalAlign=middle;resizable=0;points=[];autosize=1;strokeColor=none;fillColor=none;" vertex="1" parent="WIyWlLk6GJQsqaUBKTNV-1">
          <mxGeometry x="395" y="458" width="50" height="30" as="geometry" />
        </mxCell>
        <mxCell id="E8Huc1iyoqKieG4LwPIf-77" value="+belongs" style="text;html=1;align=center;verticalAlign=middle;resizable=0;points=[];autosize=1;strokeColor=none;fillColor=none;" vertex="1" parent="WIyWlLk6GJQsqaUBKTNV-1">
          <mxGeometry x="395" y="440" width="70" height="30" as="geometry" />
        </mxCell>
        <mxCell id="E8Huc1iyoqKieG4LwPIf-79" value="Leaderboard" style="swimlane;whiteSpace=wrap;html=1;" vertex="1" parent="WIyWlLk6GJQsqaUBKTNV-1">
          <mxGeometry x="-455" y="750" width="200" height="95" as="geometry" />
        </mxCell>
        <mxCell id="E8Huc1iyoqKieG4LwPIf-81" value="-id: int" style="text;html=1;align=center;verticalAlign=middle;resizable=0;points=[];autosize=1;strokeColor=none;fillColor=none;" vertex="1" parent="E8Huc1iyoqKieG4LwPIf-79">
          <mxGeometry y="24" width="60" height="30" as="geometry" />
        </mxCell>
        <mxCell id="E8Huc1iyoqKieG4LwPIf-85" value="0,...*" style="text;html=1;align=center;verticalAlign=middle;resizable=0;points=[];autosize=1;strokeColor=none;fillColor=none;" vertex="1" parent="WIyWlLk6GJQsqaUBKTNV-1">
          <mxGeometry x="-170" y="410" width="50" height="30" as="geometry" />
        </mxCell>
        <mxCell id="E8Huc1iyoqKieG4LwPIf-86" value="Challenge Leaderboard" style="swimlane;whiteSpace=wrap;html=1;" vertex="1" parent="WIyWlLk6GJQsqaUBKTNV-1">
          <mxGeometry x="-490" y="1130" width="200" height="70" as="geometry" />
        </mxCell>
        <mxCell id="E8Huc1iyoqKieG4LwPIf-87" value="Tournament Leaderboard" style="swimlane;whiteSpace=wrap;html=1;" vertex="1" parent="WIyWlLk6GJQsqaUBKTNV-1">
          <mxGeometry x="-95" y="608" width="200" height="70" as="geometry" />
        </mxCell>
        <mxCell id="E8Huc1iyoqKieG4LwPIf-88" value="Extends" style="endArrow=block;endSize=16;endFill=0;html=1;rounded=0;entryX=0.5;entryY=1;entryDx=0;entryDy=0;exitX=0.75;exitY=0;exitDx=0;exitDy=0;" edge="1" parent="WIyWlLk6GJQsqaUBKTNV-1" source="E8Huc1iyoqKieG4LwPIf-86" target="E8Huc1iyoqKieG4LwPIf-79">
          <mxGeometry width="160" relative="1" as="geometry">
            <mxPoint x="-230" y="1090" as="sourcePoint" />
            <mxPoint x="-140" y="800" as="targetPoint" />
          </mxGeometry>
        </mxCell>
        <mxCell id="E8Huc1iyoqKieG4LwPIf-89" value="Extends" style="endArrow=block;endSize=16;endFill=0;html=1;rounded=0;entryX=1;entryY=1;entryDx=0;entryDy=0;exitX=0;exitY=0.5;exitDx=0;exitDy=0;" edge="1" parent="WIyWlLk6GJQsqaUBKTNV-1" source="E8Huc1iyoqKieG4LwPIf-87" target="E8Huc1iyoqKieG4LwPIf-79">
          <mxGeometry width="160" relative="1" as="geometry">
            <mxPoint x="-590" y="982" as="sourcePoint" />
            <mxPoint x="-600" y="573" as="targetPoint" />
          </mxGeometry>
        </mxCell>
        <mxCell id="E8Huc1iyoqKieG4LwPIf-91" value="" style="endArrow=none;html=1;rounded=0;entryX=0;entryY=1;entryDx=0;entryDy=0;exitX=0;exitY=0;exitDx=0;exitDy=0;" edge="1" parent="WIyWlLk6GJQsqaUBKTNV-1" source="E8Huc1iyoqKieG4LwPIf-86" target="E8Huc1iyoqKieG4LwPIf-49">
          <mxGeometry width="50" height="50" relative="1" as="geometry">
            <mxPoint x="-450" y="910" as="sourcePoint" />
            <mxPoint x="-400" y="860" as="targetPoint" />
          </mxGeometry>
        </mxCell>
        <mxCell id="E8Huc1iyoqKieG4LwPIf-92" value="1" style="text;html=1;align=center;verticalAlign=middle;resizable=0;points=[];autosize=1;strokeColor=none;fillColor=none;" vertex="1" parent="WIyWlLk6GJQsqaUBKTNV-1">
          <mxGeometry x="-660" y="500" width="30" height="30" as="geometry" />
        </mxCell>
        <mxCell id="E8Huc1iyoqKieG4LwPIf-93" value="1,...*" style="text;html=1;align=center;verticalAlign=middle;resizable=0;points=[];autosize=1;strokeColor=none;fillColor=none;" vertex="1" parent="WIyWlLk6GJQsqaUBKTNV-1">
          <mxGeometry x="-490" y="1100" width="50" height="30" as="geometry" />
        </mxCell>
        <mxCell id="E8Huc1iyoqKieG4LwPIf-94" value="" style="endArrow=none;html=1;rounded=0;entryX=0;entryY=1;entryDx=0;entryDy=0;exitX=1;exitY=0.5;exitDx=0;exitDy=0;" edge="1" parent="WIyWlLk6GJQsqaUBKTNV-1" source="E8Huc1iyoqKieG4LwPIf-86" target="E8Huc1iyoqKieG4LwPIf-32">
          <mxGeometry width="50" height="50" relative="1" as="geometry">
            <mxPoint x="30" y="1130" as="sourcePoint" />
            <mxPoint x="250" y="940" as="targetPoint" />
          </mxGeometry>
        </mxCell>
        <mxCell id="E8Huc1iyoqKieG4LwPIf-95" value="1" style="text;html=1;align=center;verticalAlign=middle;resizable=0;points=[];autosize=1;strokeColor=none;fillColor=none;" vertex="1" parent="WIyWlLk6GJQsqaUBKTNV-1">
          <mxGeometry x="-285" y="1160" width="30" height="30" as="geometry" />
        </mxCell>
        <mxCell id="E8Huc1iyoqKieG4LwPIf-96" value="1" style="text;html=1;align=center;verticalAlign=middle;resizable=0;points=[];autosize=1;strokeColor=none;fillColor=none;" vertex="1" parent="WIyWlLk6GJQsqaUBKTNV-1">
          <mxGeometry x="290" y="950" width="30" height="30" as="geometry" />
        </mxCell>
        <mxCell id="E8Huc1iyoqKieG4LwPIf-97" value="+belongs" style="text;html=1;align=center;verticalAlign=middle;resizable=0;points=[];autosize=1;strokeColor=none;fillColor=none;" vertex="1" parent="WIyWlLk6GJQsqaUBKTNV-1">
          <mxGeometry x="-25" y="1060" width="70" height="30" as="geometry" />
        </mxCell>
        <mxCell id="E8Huc1iyoqKieG4LwPIf-98" value="+contains" style="text;html=1;align=center;verticalAlign=middle;resizable=0;points=[];autosize=1;strokeColor=none;fillColor=none;" vertex="1" parent="WIyWlLk6GJQsqaUBKTNV-1">
          <mxGeometry x="-660" y="720" width="80" height="30" as="geometry" />
        </mxCell>
        <mxCell id="E8Huc1iyoqKieG4LwPIf-99" value="" style="endArrow=none;html=1;rounded=0;entryX=0.25;entryY=1;entryDx=0;entryDy=0;exitX=0.5;exitY=0;exitDx=0;exitDy=0;" edge="1" parent="WIyWlLk6GJQsqaUBKTNV-1" source="E8Huc1iyoqKieG4LwPIf-87" target="E8Huc1iyoqKieG4LwPIf-7">
          <mxGeometry width="50" height="50" relative="1" as="geometry">
            <mxPoint x="-40" y="810" as="sourcePoint" />
            <mxPoint x="-60" y="510" as="targetPoint" />
          </mxGeometry>
        </mxCell>
        <mxCell id="E8Huc1iyoqKieG4LwPIf-100" value="" style="endArrow=none;html=1;rounded=0;entryX=0;entryY=0.75;entryDx=0;entryDy=0;exitX=1;exitY=0.5;exitDx=0;exitDy=0;" edge="1" parent="WIyWlLk6GJQsqaUBKTNV-1" source="E8Huc1iyoqKieG4LwPIf-87" target="E8Huc1iyoqKieG4LwPIf-17">
          <mxGeometry width="50" height="50" relative="1" as="geometry">
            <mxPoint x="160" y="680" as="sourcePoint" />
            <mxPoint x="210" y="630" as="targetPoint" />
          </mxGeometry>
        </mxCell>
        <mxCell id="E8Huc1iyoqKieG4LwPIf-101" value="1,...*" style="text;html=1;align=center;verticalAlign=middle;resizable=0;points=[];autosize=1;strokeColor=none;fillColor=none;" vertex="1" parent="WIyWlLk6GJQsqaUBKTNV-1">
          <mxGeometry x="-75" y="418" width="50" height="30" as="geometry" />
        </mxCell>
        <mxCell id="E8Huc1iyoqKieG4LwPIf-102" value="1,...*" style="text;html=1;align=center;verticalAlign=middle;resizable=0;points=[];autosize=1;strokeColor=none;fillColor=none;" vertex="1" parent="WIyWlLk6GJQsqaUBKTNV-1">
          <mxGeometry x="5" y="578" width="50" height="30" as="geometry" />
        </mxCell>
        <mxCell id="E8Huc1iyoqKieG4LwPIf-103" value="+contains" style="text;html=1;align=center;verticalAlign=middle;resizable=0;points=[];autosize=1;strokeColor=none;fillColor=none;" vertex="1" parent="WIyWlLk6GJQsqaUBKTNV-1">
          <mxGeometry x="-35" y="500" width="80" height="30" as="geometry" />
        </mxCell>
        <mxCell id="E8Huc1iyoqKieG4LwPIf-104" value="1" style="text;html=1;align=center;verticalAlign=middle;resizable=0;points=[];autosize=1;strokeColor=none;fillColor=none;" vertex="1" parent="WIyWlLk6GJQsqaUBKTNV-1">
          <mxGeometry x="110" y="648" width="30" height="30" as="geometry" />
        </mxCell>
        <mxCell id="E8Huc1iyoqKieG4LwPIf-105" value="1" style="text;html=1;align=center;verticalAlign=middle;resizable=0;points=[];autosize=1;strokeColor=none;fillColor=none;" vertex="1" parent="WIyWlLk6GJQsqaUBKTNV-1">
          <mxGeometry x="275" y="638" width="30" height="30" as="geometry" />
        </mxCell>
        <mxCell id="E8Huc1iyoqKieG4LwPIf-106" value="+belongs" style="text;html=1;align=center;verticalAlign=middle;resizable=0;points=[];autosize=1;strokeColor=none;fillColor=none;" vertex="1" parent="WIyWlLk6GJQsqaUBKTNV-1">
          <mxGeometry x="155" y="608" width="70" height="30" as="geometry" />
        </mxCell>
        <mxCell id="E8Huc1iyoqKieG4LwPIf-52" value="1-4" style="text;html=1;align=center;verticalAlign=middle;resizable=0;points=[];autosize=1;strokeColor=none;fillColor=none;" vertex="1" parent="WIyWlLk6GJQsqaUBKTNV-1">
          <mxGeometry x="-430" y="394" width="40" height="30" as="geometry" />
        </mxCell>
        <mxCell id="E8Huc1iyoqKieG4LwPIf-108" value="" style="endArrow=none;html=1;rounded=0;exitX=0;exitY=0.5;exitDx=0;exitDy=0;entryX=0.5;entryY=1;entryDx=0;entryDy=0;" edge="1" parent="WIyWlLk6GJQsqaUBKTNV-1" source="E8Huc1iyoqKieG4LwPIf-32" target="E8Huc1iyoqKieG4LwPIf-49">
          <mxGeometry width="50" height="50" relative="1" as="geometry">
            <mxPoint x="210" y="880" as="sourcePoint" />
            <mxPoint x="-650" y="470" as="targetPoint" />
          </mxGeometry>
        </mxCell>
      </root>
    </mxGraphModel>
  </diagram>
</mxfile>
